<svg width="30" height="30" viewBox="0 0 30 30" fill="none" xmlns="http://www.w3.org/2000/svg">
<path d="M6.25 12.25C6.25 11.1788 6.25 10.4512 6.2975 9.88875C6.34125 9.34125 6.4225 9.06 6.5225 8.865L4.295 7.73C3.98625 8.33625 3.8625 8.9825 3.805 9.685C3.75 10.3725 3.75 11.22 3.75 12.25H6.25ZM6.25 15V12.25H3.75V15H6.25ZM3.75 15V21.25H6.25V15H3.75ZM3.75 21.25V24.8925H6.25V21.25H3.75ZM3.75 24.8925C3.75 26.5062 5.7025 27.315 6.84375 26.1737L5.07625 24.4062C5.1724 24.3101 5.29492 24.2445 5.42831 24.218C5.5617 24.1914 5.69997 24.2051 5.82563 24.2571C5.95128 24.3092 6.05867 24.3973 6.13421 24.5104C6.20975 24.6235 6.25005 24.7565 6.25 24.8925H3.75ZM6.84375 26.1737L10.5187 22.5L8.75 20.7325L5.07625 24.4062L6.84375 26.1737ZM19 20H10.5175V22.5H19V20ZM22.385 19.7275C22.19 19.8275 21.91 19.9087 21.3613 19.9525C20.7988 19.9987 20.0712 20 19 20V22.5C20.03 22.5 20.8763 22.5 21.565 22.445C22.2675 22.3875 22.9137 22.2637 23.52 21.955L22.385 19.7275ZM23.4775 18.635C23.2378 19.1054 22.8554 19.4878 22.385 19.7275L23.52 21.955C24.4608 21.4756 25.2256 20.7108 25.705 19.77L23.4775 18.635ZM23.75 15.25C23.75 16.3212 23.75 17.0487 23.7025 17.6112C23.6587 18.1587 23.5775 18.44 23.4775 18.635L25.705 19.77C26.0137 19.1637 26.1375 18.5175 26.195 17.815C26.2512 17.1275 26.25 16.28 26.25 15.25H23.75ZM23.75 12.25V15.25H26.25V12.25H23.75ZM23.4775 8.865C23.5775 9.06 23.6587 9.34 23.7025 9.88875C23.75 10.4512 23.75 11.1788 23.75 12.25H26.25C26.25 11.22 26.25 10.3738 26.195 9.685C26.1375 8.9825 26.0137 8.33625 25.705 7.73L23.4775 8.865ZM22.385 7.7725C22.8554 8.01218 23.2378 8.39462 23.4775 8.865L25.705 7.73C25.2256 6.78923 24.4608 6.02436 23.52 5.545L22.385 7.7725ZM19 7.5C20.0712 7.5 20.7988 7.5 21.3613 7.5475C21.9088 7.59125 22.19 7.6725 22.385 7.7725L23.52 5.545C22.9137 5.23625 22.2675 5.1125 21.565 5.055C20.8775 5 20.03 5 19 5V7.5ZM11 7.5H19V5H11V7.5ZM7.615 7.7725C7.81 7.6725 8.09 7.59125 8.63875 7.5475C9.20125 7.5 9.92875 7.5 11 7.5V5C9.97 5 9.12375 5 8.435 5.055C7.7325 5.1125 7.08625 5.23625 6.48 5.545L7.615 7.7725ZM6.5225 8.865C6.76218 8.39462 7.14462 8.01218 7.615 7.7725L6.48 5.545C5.53923 6.02436 4.77436 6.78923 4.295 7.73L6.5225 8.865ZM10.5175 22.5V20C9.85451 20.0001 9.21873 20.2636 8.75 20.7325L10.5175 22.5Z" fill="#8a8a8a"/>
<path d="M10 11.25H20M10 16.25H16.25" stroke="#8a8a8a" stroke-width="2" stroke-linecap="round" stroke-linejoin="round"/>
</svg>
